<svg width="19" height="25" viewBox="0 0 19 25" fill="none" xmlns="http://www.w3.org/2000/svg">
<path d="M15.85 0.078125C16.3713 0.078125 16.7567 0.100792 17.006 0.146126C17.278 0.168793 17.5727 0.270792 17.89 0.452124C18.23 0.633458 18.468 0.939458 18.604 1.37012C18.74 1.80079 18.808 2.37879 18.808 3.10412C18.808 3.82946 18.74 4.40746 18.604 4.83812C18.468 5.26879 18.23 5.57479 17.89 5.75612C17.55 5.91479 17.244 6.01679 16.972 6.06213C16.7227 6.08479 16.326 6.09612 15.782 6.09612H5.37799V9.53013H12.076C12.62 9.53013 13.0167 9.55279 13.266 9.59813C13.538 9.62079 13.844 9.72279 14.184 9.90413C14.7733 10.2441 15.068 11.1395 15.068 12.5901C15.068 14.1768 14.6373 15.1175 13.776 15.4121C13.4133 15.5255 12.8353 15.5821 12.042 15.5821H5.37799V22.0081C5.37799 22.5521 5.35532 22.9488 5.30999 23.1981C5.28732 23.4475 5.27247 23.7276 5 24.0001C4.90542 24.0947 3.76923 24.0001 3.35199 24.0001C1.76532 24.0001 0.835985 23.5695 0.563985 22.7081C0.427985 22.3455 0.359985 21.7675 0.359985 20.9741V4.07013C0.359985 2.91412 0.575319 2.13212 1.00599 1.72412C1.43665 1.29346 2.25265 1.07812 3.45399 1.07812L15.85 0.078125Z" fill="white"/>
</svg>
