<svg width="23" height="23" viewBox="0 0 23 23" fill="none" xmlns="http://www.w3.org/2000/svg">
<path d="M22.2432 20.3499L19.08 17.2C20.5427 15.3366 21.3363 13.0355 21.3333 10.6667C21.3333 8.557 20.7077 6.49471 19.5357 4.74059C18.3636 2.98646 16.6977 1.61929 14.7486 0.811956C12.7995 0.00462174 10.6548 -0.206614 8.58571 0.204962C6.51658 0.616537 4.61596 1.63244 3.1242 3.1242C1.63244 4.61596 0.616537 6.51658 0.204962 8.58571C-0.206614 10.6548 0.00462174 12.7995 0.811956 14.7486C1.61929 16.6977 2.98646 18.3636 4.74059 19.5357C6.49471 20.7077 8.557 21.3333 10.6667 21.3333C13.0355 21.3363 15.3366 20.5427 17.2 19.08L20.3499 22.2432C20.4738 22.3682 20.6213 22.4674 20.7838 22.535C20.9462 22.6027 21.1205 22.6376 21.2965 22.6376C21.4725 22.6376 21.6468 22.6027 21.8093 22.535C21.9718 22.4674 22.1192 22.3682 22.2432 22.2432C22.3682 22.1192 22.4674 21.9718 22.535 21.8093C22.6027 21.6468 22.6376 21.4725 22.6376 21.2965C22.6376 21.1205 22.6027 20.9462 22.535 20.7838C22.4674 20.6213 22.3682 20.4738 22.2432 20.3499ZM2.66667 10.6667C2.66667 9.08442 3.13586 7.5377 4.01491 6.22211C4.89397 4.90652 6.1434 3.88114 7.6052 3.27563C9.06701 2.67013 10.6755 2.51171 12.2274 2.82039C13.7792 3.12907 15.2047 3.891 16.3235 5.00982C17.4423 6.12864 18.2043 7.5541 18.513 9.10595C18.8216 10.6578 18.6632 12.2663 18.0577 13.7281C17.4522 15.1899 16.4268 16.4394 15.1112 17.3184C13.7956 18.1975 12.2489 18.6667 10.6667 18.6667C8.54494 18.6667 6.51011 17.8238 5.00982 16.3235C3.50953 14.8232 2.66667 12.7884 2.66667 10.6667Z" fill="#272727"/>
</svg>
